<?xml version="1.0" encoding="utf-8"?>
<!-- Generator: Adobe Illustrator 23.0.6, SVG Export Plug-In . SVG Version: 6.00 Build 0)  -->
<svg version="1.1" id="レイヤー_1" xmlns="http://www.w3.org/2000/svg" xmlns:xlink="http://www.w3.org/1999/xlink" x="0px"
	 y="0px" viewBox="0 0 595.3 841.9" style="enable-background:new 0 0 595.3 841.9;" xml:space="preserve">
<style type="text/css">
	.st0{fill:none;stroke:#00A0E9;stroke-width:0.25;stroke-miterlimit:10;}
	.st1{fill:#FFFFFF;stroke:#000000;stroke-width:0.25;stroke-miterlimit:10;}
	.st2{fill:none;stroke:#E4007F;stroke-width:0.25;stroke-miterlimit:10;}
	.st3{fill:#9FA0A0;stroke:#2EA7E0;stroke-width:0.25;stroke-miterlimit:10;}
	.st4{fill:none;stroke:#C30D23;stroke-width:0.25;stroke-miterlimit:10;}
	.st5{fill:none;stroke:#000000;stroke-width:0.25;stroke-miterlimit:10;}
</style>
<g>
	<circle class="st0" cx="59.8" cy="60.1" r="5.1"/>
	<g>
		<path class="st2" d="M28.7,64.8h-3.1v-0.4l0.5-0.5c1.2-1.3,1.9-2,1.9-2.9c0-0.6-0.2-1.1-1-1.1c-0.4,0-0.8,0.2-1,0.4L25.7,60
			c0.3-0.3,0.8-0.5,1.4-0.5c1.1,0,1.5,0.8,1.5,1.5c0,1-0.7,1.8-1.8,2.9l-0.4,0.4v0h2.3V64.8z"/>
		<path class="st2" d="M29.5,64.4c0-0.3,0.2-0.5,0.4-0.5s0.4,0.2,0.4,0.5c0,0.3-0.2,0.4-0.4,0.4C29.7,64.9,29.5,64.7,29.5,64.4z"/>
		<path class="st2" d="M33.9,59.5V60H32l-0.2,1.5c0.1,0,0.2,0,0.4,0c0.9,0,1.8,0.6,1.8,1.6c0,1-0.8,1.8-1.8,1.8
			c-0.5,0-1-0.2-1.2-0.3l0.2-0.5c0.2,0.1,0.6,0.3,1,0.3c0.7,0,1.2-0.5,1.2-1.2c0-0.7-0.5-1.2-1.4-1.2c-0.3,0-0.5,0-0.7,0l0.3-2.4
			H33.9z"/>
	</g>
	<g>
		<path class="st2" d="M15.7,44.3v-4.7h0l-0.9,0.5l-0.1-0.4l1.1-0.6h0.5v5.2H15.7z"/>
		<path class="st2" d="M18,41.7c0-1.8,0.7-2.7,1.7-2.7c1,0,1.6,0.9,1.6,2.7c0,1.8-0.6,2.8-1.7,2.8C18.7,44.4,18,43.5,18,41.7z
			 M20.7,41.7c0-1.3-0.3-2.2-1-2.2c-0.6,0-1.1,0.8-1.1,2.2s0.4,2.3,1,2.3C20.4,43.9,20.7,42.9,20.7,41.7z"/>
	</g>
	<g>
		<path class="st2" d="M17.1,79.2c-0.6-0.3-0.8-0.7-0.8-1.2c0-0.8,0.6-1.4,1.5-1.4c1,0,1.4,0.6,1.4,1.3c0,0.4-0.2,0.9-0.9,1.2v0
			c0.6,0.3,1,0.7,1,1.4c0,0.9-0.7,1.5-1.7,1.5c-1,0-1.6-0.6-1.6-1.4C16.1,80,16.5,79.5,17.1,79.2L17.1,79.2z M18.8,80.6
			c0-0.7-0.4-1-1.1-1.2c-0.6,0.2-0.9,0.7-0.9,1.2c0,0.6,0.4,1.1,1,1.1C18.4,81.6,18.8,81.2,18.8,80.6z M16.9,78c0,0.6,0.4,0.9,1,1
			c0.5-0.2,0.8-0.5,0.8-1c0-0.4-0.2-0.9-0.9-0.9C17.2,77.1,16.9,77.5,16.9,78z"/>
	</g>
	<polygon class="st0" points="51.4,17.2 46.2,17.2 46.2,45.5 53.3,45.5 53.3,19.1 	"/>
	<polygon class="st0" points="71.7,17.2 66.5,17.2 66.5,45.5 73.6,45.5 73.6,19.1 	"/>
	<polygon class="st0" points="92,26.1 86.8,26.1 86.8,54.4 93.9,54.4 93.9,28 	"/>
	<polygon class="st0" points="31,26.1 25.8,26.1 25.8,54.4 32.9,54.4 32.9,28 	"/>
	<g>
		<polygon class="st0" points="31,70.8 25.8,70.8 25.8,93.5 32.9,93.5 32.9,72.7 		"/>
		<polygon class="st0" points="51.4,78 46.2,78 46.2,100.6 53.3,100.6 53.3,79.9 		"/>
		<polygon class="st0" points="71.7,78.1 66.5,78.1 66.5,100.8 73.6,100.8 73.6,80 		"/>
		<polygon class="st0" points="92,66.3 86.8,66.3 86.8,89 93.9,89 93.9,68.2 		"/>
	</g>
	<path class="st5" d="M113,39c-8-21.5-28.8-36.9-53.1-36.9C28.5,2.1,3.2,27.5,3.2,58.8c0,31.3,25.4,56.7,56.7,56.7
		c24.3,0,45.1-15.3,53.1-36.9V39z"/>
</g>
<g>
	<circle class="st0" cx="59" cy="176.8" r="5.1"/>
	<g>
		<path class="st2" d="M27.8,179.8h-3.1v-0.4l0.5-0.5c1.2-1.3,1.9-2,1.9-2.9c0-0.6-0.2-1.1-1-1.1c-0.4,0-0.8,0.2-1,0.4l-0.2-0.4
			c0.3-0.3,0.8-0.5,1.4-0.5c1.1,0,1.5,0.8,1.5,1.5c0,1-0.7,1.8-1.8,2.9l-0.4,0.4v0h2.3V179.8z"/>
		<path class="st2" d="M28.6,179.4c0-0.3,0.2-0.5,0.4-0.5s0.4,0.2,0.4,0.5c0,0.3-0.2,0.4-0.4,0.4C28.8,179.9,28.6,179.6,28.6,179.4z
			"/>
		<path class="st2" d="M33,174.5v0.5h-1.9l-0.2,1.5c0.1,0,0.2,0,0.4,0c0.9,0,1.8,0.6,1.8,1.6c0,1-0.8,1.8-1.8,1.8
			c-0.5,0-1-0.2-1.2-0.3l0.2-0.5c0.2,0.1,0.6,0.3,1,0.3c0.7,0,1.2-0.5,1.2-1.2c0-0.7-0.5-1.2-1.4-1.2c-0.3,0-0.5,0-0.7,0l0.3-2.4H33
			z"/>
	</g>
	<g>
		<path class="st2" d="M15.8,158.5c0.2-0.4,0.7-0.6,1.2-0.6c0.9,0,1.5,0.7,1.5,1.7c0,1-0.6,1.8-1.6,1.8s-1.7-0.8-1.7-2.2
			c0-1.4,0.7-2.9,2.4-3.2c0.2,0,0.4,0,0.5,0l0,0.5C16.6,156.4,15.9,157.5,15.8,158.5L15.8,158.5z M17.9,159.6c0-0.8-0.4-1.3-1.1-1.3
			c-0.6,0-1.1,0.6-1.1,1c0,1,0.4,1.6,1.1,1.6C17.5,160.9,17.9,160.4,17.9,159.6z"/>
	</g>
	<g>
		<path class="st2" d="M17.9,197h-0.6v-1.5h-2.3v-0.4l2.2-3.4h0.6v3.3h0.7v0.4h-0.7V197z M15.7,195.1h1.7v-1.9c0-0.3,0-0.6,0-0.8h0
			c-0.2,0.3-0.3,0.5-0.4,0.8L15.7,195.1L15.7,195.1z"/>
	</g>
	<g>
		<polygon class="st0" points="30.1,147.5 24.9,147.5 24.9,164.5 32,164.5 32,149.4 		"/>
		<polygon class="st0" points="50.4,139.7 45.3,139.7 45.3,156.7 52.3,156.7 52.3,141.6 		"/>
		<polygon class="st0" points="70.8,139.7 65.6,139.7 65.6,156.7 72.7,156.7 72.7,141.6 		"/>
		<polygon class="st0" points="91.1,147.5 85.9,147.5 85.9,164.5 93,164.5 93,149.4 		"/>
	</g>
	<g>
		<polygon class="st0" points="30.5,188.4 25.3,188.4 25.3,199.7 32.4,199.7 32.4,190.3 		"/>
		<polygon class="st0" points="51.3,199 46.1,199 46.1,210.4 53.2,210.4 53.2,200.9 		"/>
		<polygon class="st0" points="71.3,199 66.1,199 66.1,210.4 73.2,210.4 73.2,200.9 		"/>
		<polygon class="st0" points="90.7,188.4 85.5,188.4 85.5,199.7 92.6,199.7 92.6,190.3 		"/>
	</g>
	<path class="st5" d="M112.1,155.6c-8-21.5-28.8-36.9-53.1-36.9c-31.3,0-56.7,25.4-56.7,56.7c0,31.3,25.4,56.7,56.7,56.7
		c24.3,0,45.1-15.3,53.1-36.9V155.6z"/>
</g>
<g>
	<circle class="st0" cx="171.9" cy="176.8" r="5.1"/>
	<g>
		<path class="st2" d="M140.2,157.2V152h0.5l1.1,0.6l-0.1,0.4l-0.9-0.5h0v4.7H140.2z"/>
	</g>
	<g>
		<path class="st2" d="M160.7,149.8h2.3v0l-0.4-0.4c-1.1-1.1-1.8-1.9-1.8-2.9c0-0.7,0.4-1.5,1.5-1.5c0.6,0,1,0.2,1.4,0.5l-0.2,0.4
			c-0.3-0.2-0.6-0.4-1-0.4c-0.8,0-1,0.5-1,1.1c0,0.9,0.6,1.6,1.9,2.9l0.5,0.5v0.4h-3.1V149.8z"/>
	</g>
	<g>
		<path class="st2" d="M181.7,149.4c-0.6-0.2-1-0.7-1-1.2c0-0.6,0.4-1.2,1.4-1.2c0.5,0,1,0.2,1.2,0.4l-0.2,0.4
			c-0.2-0.2-0.6-0.3-1-0.3c-0.6,0-0.9,0.4-0.9,0.8c0,0.7,0.7,1,1.2,1h0.3v0.4h-0.3c-0.7,0-1.3,0.4-1.3,1.1c0,0.5,0.3,1.1,1.2,1.1
			c0.5,0,0.9-0.2,1.1-0.3l0.2,0.4c-0.2,0.2-0.7,0.3-1.2,0.3c-1.2,0-1.8-0.7-1.8-1.6C180.6,150,181.1,149.5,181.7,149.4L181.7,149.4z
			"/>
	</g>
	<g>
		<path class="st2" d="M201.1,157.6h-0.7v-0.4h0.7v-3.3h0.6l2.2,3.4v0.4h-2.3v1.5h-0.6V157.6z M203.4,157.1l-1.3-1.9
			c-0.1-0.2-0.3-0.5-0.4-0.8h0c0,0.3,0,0.6,0,0.8v1.9L203.4,157.1L203.4,157.1z"/>
	</g>
	<g>
		<path class="st2" d="M202.7,194.2c0.6,0.3,1,0.8,1,1.4c0,0.8-0.6,1.4-1.6,1.4c-0.9,0-1.7-0.6-1.7-1.5c0-0.6,0.4-1.1,1-1.4v0
			c-0.6-0.3-0.9-0.8-0.9-1.2c0-0.6,0.5-1.3,1.4-1.3c0.8,0,1.5,0.6,1.5,1.4C203.5,193.4,203.2,193.9,202.7,194.2L202.7,194.2z
			 M202.1,196.6c0.6,0,1-0.5,1-1.1c0-0.5-0.3-1-0.9-1.2c-0.7,0.2-1.1,0.6-1.1,1.2C201,196.1,201.4,196.6,202.1,196.6z M202,192.1
			c-0.6,0-0.9,0.5-0.9,0.9c0,0.5,0.3,0.9,0.8,1c0.6-0.2,1-0.5,1-1C202.9,192.5,202.6,192.1,202,192.1z"/>
	</g>
	<g>
		<path class="st2" d="M184,203.4h-2.5v0l2.2,4.7h-0.6l-2.2-4.9V203h3.1V203.4z"/>
	</g>
	<g>
		<path class="st2" d="M163.1,205c-0.1-1-0.8-2.1-2.3-2.1l0-0.5c0.1,0,0.3,0,0.5,0c1.7,0.3,2.4,1.8,2.4,3.2c0,1.4-0.7,2.2-1.7,2.2
			s-1.6-0.9-1.6-1.8c0-1,0.6-1.7,1.5-1.7C162.4,204.4,162.8,204.7,163.1,205L163.1,205z M162,207.4c0.7,0,1.1-0.7,1.1-1.6
			c0-0.4-0.5-1-1.1-1c-0.6,0-1.1,0.5-1.1,1.3C161,206.9,161.4,207.4,162,207.4z"/>
	</g>
	<g>
		<path class="st2" d="M142.2,191l0.3,2.4c-0.2,0-0.4,0-0.7,0c-1,0-1.4,0.5-1.4,1.2c0,0.8,0.6,1.2,1.2,1.2c0.5,0,0.8-0.2,1-0.3
			l0.2,0.5c-0.2,0.2-0.7,0.3-1.2,0.3c-1,0-1.8-0.7-1.8-1.8c0-1.1,0.8-1.6,1.8-1.6c0.2,0,0.3,0,0.4,0l-0.2-1.5h-1.9V191H142.2z"/>
	</g>
	<path class="st5" d="M225.1,155.6c-8-21.5-28.8-36.9-53.1-36.9c-31.3,0-56.7,25.4-56.7,56.7c0,31.3,25.4,56.7,56.7,56.7
		c24.3,0,45.1-15.3,53.1-36.9V155.6z"/>
</g>
<g>
	<polygon class="st0" points="290,131.9 277.7,131.9 277.7,160.2 291.9,160.2 291.9,133.8 	"/>
	<polygon class="st0" points="314.7,141.4 302.5,141.4 302.5,169.8 316.6,169.8 316.6,143.3 	"/>
	<polygon class="st0" points="265.4,141.4 253.1,141.4 253.1,169.8 267.3,169.8 267.3,143.3 	"/>
	<polygon class="st0" points="265.4,189.4 253.1,189.4 253.1,212 267.3,212 267.3,191.3 	"/>
	<polygon class="st0" points="290,191.6 277.7,191.6 277.7,214.2 291.9,214.2 291.9,193.5 	"/>
	<polygon class="st0" points="314.7,186.5 302.5,186.5 302.5,209.1 316.6,209.1 316.6,188.3 	"/>
	<circle class="st0" cx="284.9" cy="176.8" r="5.1"/>
	<g>
		<path class="st2" d="M240.8,161v-4.7h0l-0.9,0.5l-0.1-0.4l1.1-0.6h0.5v5.2H240.8z"/>
		<path class="st2" d="M243.1,158.4c0-1.8,0.7-2.7,1.7-2.7c1,0,1.6,0.9,1.6,2.7c0,1.8-0.6,2.8-1.7,2.8
			C243.7,161.1,243.1,160.2,243.1,158.4z M245.8,158.4c0-1.3-0.3-2.2-1-2.2c-0.6,0-1.1,0.8-1.1,2.2s0.4,2.3,1,2.3
			C245.5,160.6,245.8,159.6,245.8,158.4z"/>
	</g>
	<g>
		<path class="st2" d="M242.2,195.9c-0.6-0.3-0.8-0.7-0.8-1.2c0-0.8,0.6-1.4,1.5-1.4c1,0,1.4,0.6,1.4,1.3c0,0.4-0.2,0.9-0.9,1.2v0
			c0.6,0.3,1,0.7,1,1.4c0,0.9-0.7,1.5-1.7,1.5c-1,0-1.6-0.6-1.6-1.4C241.2,196.7,241.6,196.2,242.2,195.9L242.2,195.9z M243.9,197.3
			c0-0.7-0.4-1-1.1-1.2c-0.6,0.2-0.9,0.7-0.9,1.2c0,0.6,0.4,1.1,1,1.1C243.5,198.3,243.9,197.9,243.9,197.3z M241.9,194.6
			c0,0.6,0.4,0.9,1,1c0.5-0.2,0.8-0.5,0.8-1c0-0.4-0.2-0.9-0.9-0.9C242.2,193.8,241.9,194.2,241.9,194.6z"/>
	</g>
	<g>
		<path class="st2" d="M257.4,178.5v0.5h-1.9l-0.2,1.5c0.1,0,0.2,0,0.4,0c0.9,0,1.8,0.6,1.8,1.6c0,1-0.8,1.8-1.8,1.8
			c-0.5,0-1-0.2-1.2-0.3l0.2-0.5c0.2,0.1,0.6,0.3,1,0.3c0.7,0,1.2-0.5,1.2-1.2c0-0.7-0.5-1.2-1.4-1.2c-0.3,0-0.5,0-0.7,0l0.3-2.4
			H257.4z"/>
		<path class="st2" d="M258.5,183.4c0-0.3,0.2-0.5,0.4-0.5s0.4,0.2,0.4,0.5c0,0.3-0.2,0.4-0.4,0.4
			C258.6,183.9,258.5,183.7,258.5,183.4z"/>
		<path class="st2" d="M259.9,181.2c0-1.8,0.7-2.7,1.7-2.7c1,0,1.6,0.9,1.6,2.7c0,1.8-0.6,2.8-1.7,2.8
			C260.5,183.9,259.9,182.9,259.9,181.2z M262.6,181.1c0-1.3-0.3-2.2-1-2.2c-0.6,0-1.1,0.8-1.1,2.2s0.4,2.3,1,2.3
			C262.3,183.4,262.6,182.4,262.6,181.1z"/>
	</g>
	<path class="st5" d="M338,155.6c-8-21.5-28.8-36.9-53.1-36.9c-31.3,0-56.7,25.4-56.7,56.7c0,31.3,25.4,56.7,56.7,56.7
		c24.3,0,45.1-15.3,53.1-36.9V155.6z"/>
</g>
<g>
	<circle class="st0" cx="397.9" cy="176.8" r="5.1"/>
	<g>
		<path class="st2" d="M372.1,159.4v-5.2h0.5l1.1,0.6l-0.1,0.4l-0.9-0.5h0v4.7H372.1z"/>
	</g>
	<g>
		<path class="st2" d="M396.6,150.6h2.3v0l-0.4-0.4c-1.1-1.1-1.8-1.9-1.8-2.9c0-0.7,0.4-1.5,1.5-1.5c0.6,0,1,0.2,1.4,0.5l-0.2,0.4
			c-0.3-0.2-0.6-0.4-1-0.4c-0.8,0-1,0.5-1,1.1c0,0.9,0.6,1.6,1.9,2.9l0.5,0.5v0.4h-3.1V150.6z"/>
	</g>
	<g>
		<path class="st2" d="M422.4,156.3c-0.6-0.2-1-0.7-1-1.2c0-0.6,0.4-1.2,1.4-1.2c0.5,0,1,0.2,1.2,0.4l-0.2,0.4
			c-0.2-0.2-0.6-0.3-1-0.3c-0.6,0-0.9,0.4-0.9,0.8c0,0.7,0.7,1,1.2,1h0.3v0.4h-0.3c-0.7,0-1.3,0.4-1.3,1.1c0,0.5,0.3,1.1,1.2,1.1
			c0.5,0,0.9-0.2,1.1-0.3l0.2,0.4c-0.2,0.2-0.7,0.3-1.2,0.3c-1.2,0-1.8-0.7-1.8-1.6C421.2,156.9,421.8,156.4,422.4,156.3
			L422.4,156.3z"/>
	</g>
	<g>
		<path class="st2" d="M373.4,202.4h-0.7v-0.4h0.7v-3.3h0.6l2.2,3.4v0.4H374v1.5h-0.6V202.4z M375.7,201.9l-1.3-1.9
			c-0.1-0.2-0.3-0.5-0.4-0.8h0c0,0.3,0,0.6,0,0.8v1.9L375.7,201.9L375.7,201.9z"/>
	</g>
	<g>
		<path class="st2" d="M424.5,199.2c-0.1-1-0.8-2.1-2.3-2.1l0-0.5c0.1,0,0.3,0,0.5,0c1.7,0.3,2.4,1.8,2.4,3.2c0,1.4-0.7,2.2-1.7,2.2
			s-1.6-0.9-1.6-1.8c0-1,0.6-1.7,1.5-1.7C423.8,198.5,424.2,198.8,424.5,199.2L424.5,199.2z M423.4,201.6c0.7,0,1.1-0.7,1.1-1.6
			c0-0.4-0.5-1-1.1-1c-0.6,0-1.1,0.5-1.1,1.3C422.3,201,422.7,201.6,423.4,201.6z"/>
	</g>
	<g>
		<path class="st2" d="M398.7,200.7l0.3,2.4c-0.2,0-0.4,0-0.7,0c-1,0-1.4,0.5-1.4,1.2c0,0.8,0.6,1.2,1.2,1.2c0.5,0,0.8-0.2,1-0.3
			l0.2,0.5c-0.2,0.2-0.7,0.3-1.2,0.3c-1,0-1.8-0.7-1.8-1.8c0-1.1,0.8-1.6,1.8-1.6c0.2,0,0.3,0,0.4,0l-0.2-1.5h-1.9v-0.5H398.7z"/>
	</g>
	<path class="st5" d="M451,155.6c-8-21.5-28.8-36.9-53.1-36.9c-31.3,0-56.7,25.4-56.7,56.7c0,31.3,25.4,56.7,56.7,56.7
		c24.3,0,45.1-15.3,53.1-36.9V155.6z"/>
</g>
<g>
	<circle class="st0" cx="397.9" cy="60.1" r="5.1"/>
	<g>
		<path class="st2" d="M366.2,40.5v-5.2h0.5l1.1,0.6l-0.1,0.4l-0.9-0.5h0v4.7H366.2z"/>
	</g>
	<g>
		<path class="st2" d="M386.7,33.1h2.3v0l-0.4-0.4c-1.1-1.1-1.8-1.9-1.8-2.9c0-0.7,0.4-1.5,1.5-1.5c0.6,0,1,0.2,1.4,0.5l-0.2,0.4
			c-0.3-0.2-0.6-0.4-1-0.4c-0.8,0-1,0.5-1,1.1c0,0.9,0.6,1.6,1.9,2.9l0.5,0.5v0.4h-3.1V33.1z"/>
	</g>
	<g>
		<path class="st2" d="M407.7,32.7c-0.6-0.2-1-0.7-1-1.2c0-0.6,0.4-1.2,1.4-1.2c0.5,0,1,0.2,1.2,0.4l-0.2,0.4
			c-0.2-0.2-0.6-0.3-1-0.3c-0.6,0-0.9,0.4-0.9,0.8c0,0.7,0.7,1,1.2,1h0.3v0.4h-0.3c-0.7,0-1.3,0.4-1.3,1.1c0,0.5,0.3,1.1,1.2,1.1
			c0.5,0,0.9-0.2,1.1-0.3l0.2,0.4c-0.2,0.2-0.7,0.3-1.2,0.3c-1.2,0-1.8-0.7-1.8-1.6C406.5,33.3,407.1,32.8,407.7,32.7L407.7,32.7z"
			/>
	</g>
	<g>
		<path class="st2" d="M427.1,40.9h-0.7v-0.4h0.7v-3.3h0.6l2.2,3.4v0.4h-2.3v1.5h-0.6V40.9z M429.3,40.4l-1.3-1.9
			c-0.1-0.2-0.3-0.5-0.4-0.8h0c0,0.3,0,0.6,0,0.8v1.9L429.3,40.4L429.3,40.4z"/>
	</g>
	<g>
		<path class="st2" d="M428.6,77.5c0.6,0.3,1,0.8,1,1.4c0,0.8-0.6,1.4-1.6,1.4c-0.9,0-1.7-0.6-1.7-1.5c0-0.6,0.4-1.1,1-1.4v0
			c-0.6-0.3-0.9-0.8-0.9-1.2c0-0.6,0.5-1.3,1.4-1.3c0.8,0,1.5,0.6,1.5,1.4C429.4,76.8,429.2,77.2,428.6,77.5L428.6,77.5z M428,79.9
			c0.6,0,1-0.5,1-1.1c0-0.5-0.3-1-0.9-1.2c-0.7,0.2-1.1,0.6-1.1,1.2C427,79.5,427.3,79.9,428,79.9z M428,75.4
			c-0.6,0-0.9,0.5-0.9,0.9c0,0.5,0.3,0.9,0.8,1c0.6-0.2,1-0.5,1-1C428.9,75.8,428.6,75.4,428,75.4z"/>
	</g>
	<g>
		<path class="st2" d="M410,86.8h-2.5v0l2.2,4.7h-0.6l-2.2-4.9v-0.4h3.1V86.8z"/>
	</g>
	<g>
		<path class="st2" d="M389.1,88.3c-0.1-1-0.8-2.1-2.3-2.1l0-0.5c0.1,0,0.3,0,0.5,0c1.7,0.3,2.4,1.8,2.4,3.2c0,1.4-0.7,2.2-1.7,2.2
			s-1.6-0.9-1.6-1.8c0-1,0.6-1.7,1.5-1.7C388.4,87.7,388.8,88,389.1,88.3L389.1,88.3z M387.9,90.7c0.7,0,1.1-0.7,1.1-1.6
			c0-0.4-0.5-1-1.1-1c-0.6,0-1.1,0.5-1.1,1.3C386.9,90.2,387.3,90.7,387.9,90.7z"/>
	</g>
	<g>
		<path class="st2" d="M368.2,74.3l0.3,2.4c-0.2,0-0.4,0-0.7,0c-1,0-1.4,0.5-1.4,1.2c0,0.8,0.6,1.2,1.2,1.2c0.5,0,0.8-0.2,1-0.3
			l0.2,0.5c-0.2,0.2-0.7,0.3-1.2,0.3c-1,0-1.8-0.7-1.8-1.8c0-1.1,0.8-1.6,1.8-1.6c0.2,0,0.3,0,0.4,0l-0.2-1.5h-1.9v-0.5H368.2z"/>
	</g>
	<path class="st5" d="M451,39c-8-21.5-28.8-36.9-53.1-36.9c-31.3,0-56.7,25.4-56.7,56.7c0,31.3,25.4,56.7,56.7,56.7
		c24.3,0,45.1-15.3,53.1-36.9V39z"/>
</g>
<g>
	<polygon class="st0" points="277.8,17.2 269.8,17.2 269.8,45.5 279.7,45.5 279.7,19 	"/>
	<polygon class="st0" points="298.5,17.3 290.4,17.3 290.4,45.6 300.3,45.6 300.3,19.2 	"/>
	<polygon class="st0" points="319.2,26 311.2,26 311.2,54.4 321.1,54.4 321.1,27.9 	"/>
	<polygon class="st0" points="257.8,26.1 249.8,26.1 249.8,54.5 259.7,54.5 259.7,28 	"/>
	<polygon class="st0" points="298.7,78 290.6,78 290.6,100.6 300.5,100.6 300.5,79.9 	"/>
	<polygon class="st0" points="257.8,70.8 249.8,70.8 249.8,93.5 259.7,93.5 259.7,72.7 	"/>
	<polygon class="st0" points="278.2,77.8 270.2,77.8 270.2,100.4 280.1,100.4 280.1,79.7 	"/>
	<polygon class="st0" points="319.2,66.4 311.2,66.4 311.2,89 321.1,89 321.1,68.3 	"/>
	<circle class="st0" cx="285.2" cy="60.1" r="5.1"/>
	<g>
		<path class="st2" d="M241.1,44.3v-4.7h0l-0.9,0.5l-0.1-0.4l1.1-0.6h0.5v5.2H241.1z"/>
		<path class="st2" d="M243.4,41.7c0-1.8,0.7-2.7,1.7-2.7c1,0,1.6,0.9,1.6,2.7c0,1.8-0.6,2.8-1.7,2.8
			C244,44.4,243.4,43.5,243.4,41.7z M246.1,41.7c0-1.3-0.3-2.2-1-2.2c-0.6,0-1.1,0.8-1.1,2.2s0.4,2.3,1,2.3
			C245.8,43.9,246.1,42.9,246.1,41.7z"/>
	</g>
	<g>
		<path class="st2" d="M242.5,79.2c-0.6-0.3-0.8-0.7-0.8-1.2c0-0.8,0.6-1.4,1.5-1.4c1,0,1.4,0.6,1.4,1.3c0,0.4-0.2,0.9-0.9,1.2v0
			c0.6,0.3,1,0.7,1,1.4c0,0.9-0.7,1.5-1.7,1.5c-1,0-1.6-0.6-1.6-1.4C241.5,80,241.9,79.5,242.5,79.2L242.5,79.2z M244.1,80.6
			c0-0.7-0.4-1-1.1-1.2c-0.6,0.2-0.9,0.7-0.9,1.2c0,0.6,0.4,1.1,1,1.1C243.8,81.6,244.1,81.2,244.1,80.6z M242.2,78
			c0,0.6,0.4,0.9,1,1c0.5-0.2,0.8-0.5,0.8-1c0-0.4-0.2-0.9-0.9-0.9C242.5,77.1,242.2,77.5,242.2,78z"/>
	</g>
	<g>
		<path class="st2" d="M252.4,62.3c0.6,0.1,1.1,0.6,1.1,1.4c0,0.8-0.6,1.6-1.8,1.6c-0.5,0-1-0.2-1.2-0.3l0.2-0.4
			c0.2,0.1,0.6,0.3,1.1,0.3c0.9,0,1.2-0.6,1.2-1.1c0-0.8-0.7-1.1-1.3-1.1h-0.3v-0.4h0.3c0.5,0,1.2-0.3,1.2-1c0-0.5-0.3-0.8-0.9-0.8
			c-0.4,0-0.8,0.2-1,0.3l-0.2-0.4c0.3-0.2,0.7-0.4,1.2-0.4c1,0,1.4,0.6,1.4,1.2C253.3,61.6,253,62.1,252.4,62.3L252.4,62.3z"/>
		<path class="st2" d="M254.4,64.8c0-0.3,0.2-0.5,0.4-0.5s0.4,0.2,0.4,0.5c0,0.3-0.2,0.4-0.4,0.4C254.6,65.2,254.4,65,254.4,64.8z"
			/>
		<path class="st2" d="M258.8,59.9v0.5h-1.9l-0.2,1.5c0.1,0,0.2,0,0.4,0c0.9,0,1.8,0.6,1.8,1.6c0,1-0.8,1.8-1.8,1.8
			c-0.5,0-1-0.2-1.2-0.3l0.2-0.5c0.2,0.1,0.6,0.3,1,0.3c0.7,0,1.2-0.5,1.2-1.2c0-0.7-0.5-1.2-1.4-1.2c-0.3,0-0.5,0-0.7,0l0.3-2.4
			H258.8z"/>
	</g>
	<path class="st5" d="M338.3,39c-8-21.5-28.8-36.9-53.1-36.9c-31.3,0-56.7,25.4-56.7,56.7c0,31.3,25.4,56.7,56.7,56.7
		c24.3,0,45.1-15.3,53.1-36.9V39z"/>
</g>
<g>
	<circle class="st0" cx="172.5" cy="60.1" r="5.1"/>
	<g>
		<path class="st2" d="M140.8,40.5v-5.2h0.5l1.1,0.6l-0.1,0.4l-0.9-0.5h0v4.7H140.8z"/>
	</g>
	<g>
		<path class="st2" d="M161.3,33.1h2.3v0l-0.4-0.4c-1.1-1.1-1.8-1.9-1.8-2.9c0-0.7,0.4-1.5,1.5-1.5c0.6,0,1,0.2,1.4,0.5l-0.2,0.4
			c-0.3-0.2-0.6-0.4-1-0.4c-0.8,0-1,0.5-1,1.1c0,0.9,0.6,1.6,1.9,2.9l0.5,0.5v0.4h-3.1V33.1z"/>
	</g>
	<g>
		<path class="st2" d="M182.3,32.7c-0.6-0.2-1-0.7-1-1.2c0-0.6,0.4-1.2,1.4-1.2c0.5,0,1,0.2,1.2,0.4l-0.2,0.4
			c-0.2-0.2-0.6-0.3-1-0.3c-0.6,0-0.9,0.4-0.9,0.8c0,0.7,0.7,1,1.2,1h0.3v0.4h-0.3c-0.7,0-1.3,0.4-1.3,1.1c0,0.5,0.3,1.1,1.2,1.1
			c0.5,0,0.9-0.2,1.1-0.3l0.2,0.4c-0.2,0.2-0.7,0.3-1.2,0.3c-1.2,0-1.8-0.7-1.8-1.6C181.2,33.3,181.7,32.8,182.3,32.7L182.3,32.7z"
			/>
	</g>
	<g>
		<path class="st2" d="M201.7,40.9H201v-0.4h0.7v-3.3h0.6l2.2,3.4v0.4h-2.3v1.5h-0.6V40.9z M204,40.4l-1.3-1.9
			c-0.1-0.2-0.3-0.5-0.4-0.8h0c0,0.3,0,0.6,0,0.8v1.9L204,40.4L204,40.4z"/>
	</g>
	<g>
		<path class="st2" d="M203.3,77.5c0.6,0.3,1,0.8,1,1.4c0,0.8-0.6,1.4-1.6,1.4c-0.9,0-1.7-0.6-1.7-1.5c0-0.6,0.4-1.1,1-1.4v0
			c-0.6-0.3-0.9-0.8-0.9-1.2c0-0.6,0.5-1.3,1.4-1.3c0.8,0,1.5,0.6,1.5,1.4C204.1,76.8,203.8,77.2,203.3,77.5L203.3,77.5z
			 M202.7,79.9c0.6,0,1-0.5,1-1.1c0-0.5-0.3-1-0.9-1.2c-0.7,0.2-1.1,0.6-1.1,1.2C201.6,79.5,202,79.9,202.7,79.9z M202.6,75.4
			c-0.6,0-0.9,0.5-0.9,0.9c0,0.5,0.3,0.9,0.8,1c0.6-0.2,1-0.5,1-1C203.5,75.8,203.2,75.4,202.6,75.4z"/>
	</g>
	<g>
		<path class="st2" d="M184.6,86.8h-2.5v0l2.2,4.7h-0.6l-2.2-4.9v-0.4h3.1V86.8z"/>
	</g>
	<g>
		<path class="st2" d="M163.7,88.3c-0.1-1-0.8-2.1-2.3-2.1l0-0.5c0.1,0,0.3,0,0.5,0c1.7,0.3,2.4,1.8,2.4,3.2c0,1.4-0.7,2.2-1.7,2.2
			s-1.6-0.9-1.6-1.8c0-1,0.6-1.7,1.5-1.7C163,87.7,163.4,88,163.7,88.3L163.7,88.3z M162.6,90.7c0.7,0,1.1-0.7,1.1-1.6
			c0-0.4-0.5-1-1.1-1c-0.6,0-1.1,0.5-1.1,1.3C161.6,90.2,162,90.7,162.6,90.7z"/>
	</g>
	<g>
		<path class="st2" d="M142.8,74.3l0.3,2.4c-0.2,0-0.4,0-0.7,0c-1,0-1.4,0.5-1.4,1.2c0,0.8,0.6,1.2,1.2,1.2c0.5,0,0.8-0.2,1-0.3
			l0.2,0.5c-0.2,0.2-0.7,0.3-1.2,0.3c-1,0-1.8-0.7-1.8-1.8c0-1.1,0.8-1.6,1.8-1.6c0.2,0,0.3,0,0.4,0l-0.2-1.5h-1.9v-0.5H142.8z"/>
	</g>
	<path class="st5" d="M225.6,39c-8-21.5-28.8-36.9-53.1-36.9c-31.3,0-56.7,25.4-56.7,56.7c0,31.3,25.4,56.7,56.7,56.7
		c24.3,0,45.1-15.3,53.1-36.9V39z"/>
</g>
</svg>
